<svg width="32" height="32" viewBox="0 0 32 32" fill="none" xmlns="http://www.w3.org/2000/svg">
<path d="M20.5417 15.2416C21.2886 15.2416 21.9705 15.6582 22.3651 16.3564C22.447 16.5011 22.5974 16.5824 22.7523 16.5824C23.0816 16.5907 23.3113 16.2038 23.1389 15.9187C22.5923 14.9526 21.5971 14.3526 20.5414 14.3526C16.5072 14.4864 16.5337 20.6649 20.5414 20.8217C22.2413 20.8217 23.5728 19.4009 23.5728 17.5872C23.5622 17.0022 22.6937 17.0032 22.6835 17.5872C22.6835 18.9024 21.7427 19.9324 20.5411 19.9324C17.7145 19.8323 17.6957 15.3248 20.5417 15.2416Z" fill="#829985"/>
<path d="M14.3158 17.5943C14.3834 15.8992 12.9882 14.3251 11.2842 14.3523C7.2496 14.4864 7.2768 20.665 11.2842 20.8211C12.9843 20.8215 14.3158 19.4007 14.3158 17.5943ZM9.14208 17.5869C9.09184 15.5904 11.3859 14.4602 12.7619 15.8707C14.1395 17.2221 13.2483 19.9731 11.2842 19.9325C10.1034 19.9322 9.14208 18.8803 9.14208 17.5869Z" fill="#829985"/>
<path d="M27.5501 7.85983C24.0736 5.02175 19.8307 4.76479 19.7257 5.14527L19.3706 5.55103C19.1565 5.78207 19.2749 6.18751 19.5776 6.26943C19.7933 6.33407 20.0026 6.40031 20.2064 6.46783C17.2022 5.84927 14.0912 5.97151 11.0905 6.56319C11.4851 6.42687 11.903 6.29503 12.3443 6.16991C12.647 6.09503 12.7709 5.68991 12.5645 5.45727C12.4329 5.31647 12.2272 4.96543 11.9789 4.99327C11.9725 4.96671 7.89087 5.02175 4.47871 7.85951C4.45375 7.90463 3.85695 8.98431 3.14111 10.8112C2.94079 11.3625 3.74399 11.6742 3.96895 11.1357C4.55167 9.64863 5.06111 8.65663 5.21151 8.37407C6.56863 7.38047 7.89823 6.78271 9.01407 6.42335C6.52063 7.53311 5.33439 8.65599 5.26911 8.71903C4.90239 9.07231 5.34335 9.67487 5.79039 9.42943C11.8505 6.19935 19.7389 6.05567 25.8093 9.43071C26.2474 9.67871 26.7034 9.06239 26.3261 8.71679C26.255 8.64927 24.807 7.29727 21.7718 6.09087C23.0563 6.35935 24.9165 6.97279 26.8163 8.37343C27.225 9.14655 30.3296 15.263 30.3686 22.5974C29.8685 23.3085 27.7648 25.8669 23.2787 26.0867C23.0605 25.8249 22.6166 25.2915 22.1626 24.7376C25.1411 23.7001 26.321 21.8355 26.3728 21.7513C26.6202 21.3545 26.1395 20.8851 25.7498 21.1469C20.0358 24.9049 12.1827 24.8032 6.46623 21.1536C6.09311 20.8723 5.57535 21.3587 5.83167 21.7491C5.88159 21.8314 7.01663 23.6528 9.90495 24.7069C9.43935 25.2845 8.97503 25.8432 8.75039 26.1126C6.01471 26.0768 2.94783 24.576 1.66015 22.6057C1.67551 19.4089 2.25823 16.0845 3.39167 12.7222C3.57375 12.1686 2.74239 11.8864 2.54943 12.4381C1.40063 16.0089 0.632948 19.5645 0.831028 22.96C0.923188 23.1177 3.15199 26.8269 8.93663 27.0099C9.07231 27.0144 9.20351 26.9561 9.29087 26.8518C9.30047 26.8406 10.2429 25.7197 10.9993 24.7616C11.1952 24.5267 11.0713 24.1398 10.7776 24.0602C12.2326 24.5395 17.2064 25.4541 21.1344 24.1574C20.9373 24.2995 20.9014 24.6061 21.0585 24.7913C21.8128 25.7216 22.728 26.815 22.737 26.8259C22.825 26.9305 22.9453 26.9891 23.0922 26.9849C28.3418 26.8185 30.7222 23.6701 31.1693 23.0029C31.5862 15.2099 27.5872 7.95839 27.5501 7.85983Z" fill="#829985"/>
</svg>
