<svg width="32" height="32" viewBox="0 0 32 32" fill="none" xmlns="http://www.w3.org/2000/svg">
<path d="M21 7.5H14V8H21V7.5Z" fill="#829985"/>
<path d="M24 9.5H14V10H24V9.5Z" fill="#829985"/>
<path d="M24 15.5H8V16H24V15.5Z" fill="#829985"/>
<path d="M24 13.5H8V14H24V13.5Z" fill="#829985"/>
<path d="M24 11.5H8V12H24V11.5Z" fill="#829985"/>
<path d="M21 5.5H14V6H21V5.5Z" fill="#829985"/>
<path d="M27 11.805V8L21.5 2.5H5V11.87L2.5 14V18.4455V29.5H29.5V19.525V14L27 11.805ZM22 3.707L25.793 7.5H22V3.707ZM3.9055 29L15.153 19.835C15.3705 19.658 15.679 19.5565 16 19.5565C16.321 19.5565 16.63 19.658 16.847 19.835L28.0945 29H3.9055ZM29 14.278L18.6595 20.0225L19.077 20.3625L29 14.8495V19.5205V29.093L17.163 19.4475C16.843 19.187 16.422 19.057 16 19.057C15.578 19.057 15.1565 19.1875 14.837 19.4475L3 29.093V18.432V14.8495L12.923 20.362L13.34 20.022L3 14.278V14.231L5 12.5275V14.8895L5.5 15.1675V3H21.293H21.5V8H26.5V15.1665L27 14.8885V12.527L29 14.2305V14.278Z" fill="#829985"/>
<path d="M12.5 5.5H8V10H12.5V5.5ZM12 9.5H8.5V6H12V9.5Z" fill="#829985"/>
</svg>
