<svg width="32" height="32" viewBox="0 0 32 32" fill="none" xmlns="http://www.w3.org/2000/svg">
<path d="M16 3.01874C17.75 3.01874 19.45 3.36874 21.05 4.06249C22.6 4.73124 23.9875 5.69374 25.1812 6.91874C26.375 8.14374 27.3188 9.57499 27.975 11.1625C28.6562 12.8125 29 14.5625 29 16.3687C29 19.2312 28.1312 21.9625 26.4875 24.2625C25.7 25.3687 24.75 26.3375 23.675 27.15C22.6875 27.8937 21.6125 28.4812 20.475 28.9125C20.475 28.7937 20.475 28.6562 20.475 28.5062C20.4813 27.7625 20.4875 26.6437 20.4875 25.3562C20.4875 24.5812 20.3625 23.95 20.1812 23.45C22.5063 22.9312 25.9312 21.3437 25.9312 15.6125C25.9312 14.075 25.4875 12.7062 24.6063 11.5437C24.8 10.7375 24.95 9.31874 24.2875 7.60624L24.1187 7.16249L23.6688 7.01249C23.575 6.98124 23.3688 6.93124 23.0438 6.93124C22.325 6.93124 21.1125 7.17499 19.325 8.34374C18.2625 8.08124 17.15 7.93124 16.0063 7.93124H16H15.9937C14.85 7.93124 13.7312 8.08124 12.675 8.34374C10.8875 7.17499 9.675 6.92499 8.95625 6.92499C8.63125 6.92499 8.425 6.98124 8.33125 7.01249L7.88125 7.16249L7.7125 7.60624C7.05 9.32499 7.2 10.7437 7.39375 11.5437C6.5125 12.7125 6.06875 14.0812 6.06875 15.6125C6.06875 18.7125 7.06875 20.6062 8.35625 21.7687C7.85 21.3562 7.19375 21.0125 6.40625 20.9562H6.375H6.34375H6.325C5.50625 20.9562 4.93125 21.2937 4.75 21.875C4.45625 22.8 5.3625 23.4375 5.6625 23.65L5.69375 23.6875L5.7875 23.725C5.8875 23.7875 6.41875 24.1625 6.84375 25.2562C6.96875 25.6437 7.2375 26.1625 7.69375 26.6437C6.875 25.9437 6.14375 25.1437 5.5125 24.2625C3.86875 21.9687 3 19.2375 3 16.375C3 14.5687 3.34375 12.8187 4.025 11.1687C4.68125 9.57499 5.61875 8.14999 6.81875 6.92499C8.0125 5.69999 9.40625 4.73749 10.95 4.06874C12.55 3.37499 14.25 3.01874 16 3.01874ZM8.54375 21.9375C9.59375 22.8187 10.8125 23.2437 11.8125 23.4687C11.7625 23.6062 11.7188 23.75 11.6812 23.9C11.4688 23.9625 11.2125 24.0125 10.95 24.0125C10.2688 24.0125 9.7625 23.675 9.35 22.9562C9.2 22.6687 8.925 22.2875 8.54375 21.9375ZM8.775 27.475C9.3875 27.8062 10.1562 28.025 11.1 28.025C11.2375 28.025 11.375 28.0187 11.5188 28.0125C11.5188 28.1875 11.5187 28.3562 11.525 28.5062C11.525 28.6562 11.525 28.7937 11.5312 28.9125C10.5562 28.55 9.6375 28.0687 8.775 27.475ZM16 2.01874C8.26875 2.01874 2 8.44999 2 16.375C2 22.7187 6.0125 28.0937 11.575 29.9937C11.6625 30.0125 11.7375 30.0187 11.8125 30.0187C12.3313 30.0187 12.5312 29.6375 12.5312 29.3062C12.5312 28.9625 12.5188 28.0625 12.5125 26.8625C11.9875 26.9812 11.5188 27.0312 11.1 27.0312C8.40625 27.0312 7.79375 24.9375 7.79375 24.9375C7.15625 23.2812 6.2375 22.825 6.2375 22.825C5.01875 21.9687 6.23125 21.9375 6.325 21.9375C6.33125 21.9375 6.33125 21.9375 6.33125 21.9375C7.7375 22.0625 8.475 23.4312 8.475 23.4312C9.175 24.6562 10.1125 25.0062 10.95 25.0062C11.6062 25.0062 12.2 24.7937 12.55 24.6312C12.675 23.7062 13.0375 23.075 13.4375 22.7125C10.3313 22.35 7.0625 21.1187 7.0625 15.6187C7.0625 14.05 7.60625 12.7687 8.5 11.7687C8.35625 11.4062 7.875 9.94374 8.6375 7.96874C8.6375 7.96874 8.7375 7.93749 8.95 7.93749C9.45625 7.93749 10.6 8.13124 12.4875 9.44374C13.6062 9.12499 14.8 8.96874 15.9937 8.96249C17.1812 8.96874 18.3813 9.12499 19.5 9.44374C21.3875 8.13124 22.5312 7.93749 23.0375 7.93749C23.25 7.93749 23.35 7.96874 23.35 7.96874C24.1125 9.94374 23.6312 11.4062 23.4875 11.7687C24.3812 12.775 24.925 14.0562 24.925 15.6187C24.925 21.1312 21.65 22.3437 18.5312 22.7C19.0312 23.1437 19.4813 24.0187 19.4813 25.3562C19.4813 27.275 19.4625 28.825 19.4625 29.2937C19.4625 29.6312 19.6562 30.0125 20.175 30.0125C20.25 30.0125 20.3375 30.0062 20.425 29.9875C25.9937 28.0937 30 22.7125 30 16.375C30 8.44999 23.7313 2.01874 16 2.01874Z" fill="#829985"/>
</svg>
