<svg width="32" height="32" viewBox="0 0 32 32" fill="none" xmlns="http://www.w3.org/2000/svg">
<path d="M16.3825 23.625C16.2221 23.6251 16.0644 23.584 15.9244 23.5056C13.6877 22.2542 11.8248 20.4296 10.5274 18.2193C9.22995 16.009 8.54483 13.4929 8.54251 10.93C8.54251 10.8258 8.54376 10.7217 8.54626 10.6175C8.59626 8.27375 9.47189 6.29813 11.0788 4.905C12.4944 3.67625 14.3781 3 16.3825 3C18.3869 3 20.27 3.67625 21.6875 4.90438C23.2944 6.2975 24.17 8.27312 24.22 10.6169C24.2225 10.721 24.2238 10.8252 24.2238 10.9294C24.2214 13.4926 23.536 16.0089 22.2382 18.2193C20.9405 20.4297 19.0771 22.2544 16.84 23.5056C16.7002 23.5839 16.5427 23.6249 16.3825 23.625ZM16.3825 4.875C14.8294 4.875 13.3825 5.38812 12.3069 6.32062C11.1113 7.3575 10.4588 8.85687 10.4206 10.6569C10.4206 10.7475 10.4206 10.8388 10.4206 10.93C10.4226 13.0696 10.9717 15.1732 12.0157 17.0409C13.0598 18.9085 14.5641 20.4782 16.3856 21.6006C18.2071 20.4781 19.7113 18.9085 20.7553 17.0408C21.7992 15.1732 22.3482 13.0696 22.35 10.93C22.35 10.8388 22.35 10.7475 22.3469 10.6569C22.3088 8.85687 21.6563 7.3575 20.4606 6.32062C19.3825 5.38812 17.9375 4.875 16.3825 4.875Z" fill="#829985"/>
<path d="M16.4019 15.4625C15.5102 15.4625 14.6386 15.1981 13.8973 14.7028C13.1559 14.2074 12.5781 13.5033 12.2369 12.6796C11.8957 11.8558 11.8064 10.9494 11.9804 10.0749C12.1543 9.2004 12.5837 8.39713 13.2141 7.76666C13.8446 7.13619 14.6479 6.70683 15.5224 6.53288C16.3969 6.35894 17.3033 6.44821 18.1271 6.78942C18.9508 7.13063 19.6549 7.70845 20.1502 8.44981C20.6456 9.19116 20.91 10.0628 20.91 10.9544C20.9087 12.1496 20.4333 13.2955 19.5881 14.1407C18.743 14.9858 17.5971 15.4612 16.4019 15.4625ZM16.4019 8.32189C15.8811 8.32189 15.3719 8.47633 14.9389 8.76569C14.5059 9.05505 14.1684 9.46632 13.9691 9.9475C13.7698 10.4287 13.7177 10.9581 13.8194 11.4689C13.921 11.9797 14.1719 12.4489 14.5402 12.8171C14.9085 13.1854 15.3777 13.4361 15.8886 13.5376C16.3994 13.6391 16.9288 13.5869 17.41 13.3875C17.8911 13.1881 18.3023 12.8505 18.5915 12.4174C18.8808 11.9843 19.0351 11.4752 19.035 10.9544C19.0342 10.2563 18.7565 9.58715 18.2628 9.09362C17.7692 8.60009 17.0999 8.32255 16.4019 8.32189Z" fill="#829985"/>
<path d="M16.3825 28.125C13.8531 28.125 11.4606 27.6213 9.64562 26.7069C7.625 25.6875 6.51437 24.2619 6.51437 22.6875C6.51437 20.5994 8.4675 18.7963 11.7394 17.865C11.9768 17.8028 12.2291 17.8362 12.4422 17.9581C12.6553 18.0799 12.8121 18.2804 12.8789 18.5166C12.9458 18.7527 12.9173 19.0057 12.7998 19.2211C12.6822 19.4365 12.4848 19.5973 12.25 19.6688C9.90312 20.3369 8.38687 21.5219 8.38687 22.6875C8.38687 24.375 11.6694 26.25 16.38 26.25C21.0906 26.25 24.375 24.375 24.375 22.6875C24.375 21.5219 22.8587 20.3369 20.5119 19.6688C20.3934 19.6351 20.2828 19.5784 20.1863 19.5019C20.0897 19.4255 20.0092 19.3308 19.9493 19.2232C19.8283 19.0059 19.7985 18.7495 19.8666 18.5103C19.9346 18.2711 20.0949 18.0688 20.3121 17.9477C20.5294 17.8267 20.7858 17.797 21.025 17.865C24.2969 18.7963 26.25 20.5994 26.25 22.6875C26.25 24.2619 25.1381 25.6875 23.1187 26.7069C21.3037 27.6213 18.9112 28.125 16.3825 28.125Z" fill="#829985"/>
</svg>
