<svg width="69" height="59" viewBox="0 0 69 59" fill="none" xmlns="http://www.w3.org/2000/svg">
<g clip-path="url(#clip0_1_9)">
<path d="M28.9064 2.61221C33.0304 0.841123 37.5691 0.116884 42.0324 0.427581C46.4017 0.761013 50.6974 2.1034 54.4717 4.36921C57.8545 6.39254 60.8256 9.12278 63.1431 12.3413C65.8487 16.0891 67.6543 20.5049 68.3367 25.1015C68.8604 28.7454 68.7537 32.4998 67.8951 36.0829C68.454 37.1925 68.7334 38.4701 68.5447 39.7108C68.3292 41.5782 67.1498 43.2863 65.5075 44.1515C65.1331 44.4124 64.5786 44.4167 64.3237 44.8313C61.3321 49.6962 56.9106 53.652 51.7544 56.0045C50.6783 56.5144 49.5574 56.9182 48.4324 57.2993L48.199 57.3512C42.7793 59.04 36.8636 58.9805 31.4513 57.2841C27.3999 55.9818 23.6256 53.7841 20.5094 50.8471C17.5256 48.0552 15.1303 44.618 13.5422 40.8258C12.8341 39.1619 12.3211 37.4211 11.9031 35.663C11.1565 35.1999 10.2566 35.0676 9.39689 35.1685C7.62134 35.3547 5.94166 36.0062 4.22349 36.4522C5.44779 35.5364 6.78299 34.7742 8.16726 34.1388C5.96822 34.1681 3.81183 34.6931 1.67891 35.1956C1.10729 35.3396 0.535561 35.4878 -0.0296631 35.6534C2.16618 33.2686 5.05522 31.6546 8.03385 30.5004C7.01527 30.3683 5.98304 30.2457 5.01032 29.892C4.0985 29.5823 3.24853 29.1028 2.48494 28.5117C3.2208 28.489 3.95986 28.5365 4.69358 28.45C6.95875 28.4662 9.33695 28.3417 11.3568 27.1866C11.7279 22.2014 13.4171 17.3244 16.1899 13.1944C19.304 8.52087 23.7746 4.786 28.9064 2.61221Z" fill="black"/>
<path d="M36.795 1.46792C40.4284 1.08902 44.1429 1.33909 47.6537 2.3946C55.0794 4.54241 61.491 10.0029 64.8781 17.0439C66.5524 20.4562 67.5273 24.2245 67.6989 28.0331C67.6744 28.8296 67.8163 29.6245 67.7127 30.4191C67.6893 31.9875 67.4813 33.5455 67.1966 35.0858C66.9917 34.8896 66.7805 34.7005 66.5632 34.5187C66.8757 32.4857 67.1029 30.421 66.9727 28.3622C66.9449 27.8239 66.9279 27.2861 66.8757 26.75C66.4513 22.4761 65.0296 18.3049 62.7282 14.6978C60.4128 11.0356 57.2294 7.94266 53.5245 5.75478C49.6853 3.48572 45.2873 2.17256 40.8422 2.06539C40.3079 1.98528 39.7661 2.04374 39.2286 2.02533L39.1572 2.07838C34.4914 2.1455 29.8735 3.59939 25.8956 6.05574C21.9967 8.47853 18.7109 11.9124 16.4521 15.9483C14.7095 19.0303 13.5835 22.4652 13.1345 25.9879C12.9243 26.2477 12.6129 26.3928 12.3357 26.5649C12.8423 21.3157 14.8995 16.246 18.1095 12.1039C21.4603 7.76392 26.0856 4.44477 31.2451 2.71493C33.0475 2.10988 34.9105 1.69418 36.795 1.46792Z" fill="#F9FCFA"/>
<path d="M38.0193 3.73707C38.5707 3.45452 39.3384 3.4123 39.7971 3.89188C40.1105 4.17876 40.1606 4.63019 40.2653 5.02208C39.9656 5.04806 39.6649 5.06538 39.3653 5.06213C39.2629 4.86944 39.2586 4.56307 39.0219 4.48296C38.831 4.43316 38.6348 4.48837 38.4449 4.51002C38.4299 4.67241 38.4215 4.83479 38.4172 4.99826C38.9589 5.2007 39.5667 5.31545 39.9913 5.74523C40.4659 6.19991 40.4286 6.9772 40.1448 7.52714C39.7214 8.33474 38.5343 8.44613 37.8732 7.8898C37.5201 7.55096 37.4531 7.04432 37.3805 6.58314C37.7027 6.58314 38.0246 6.58314 38.3468 6.57989C38.4172 6.778 38.4449 7.00101 38.5782 7.17206C38.7093 7.37233 38.9631 7.29439 39.1625 7.30522C39.3032 7.05406 39.3823 6.75733 39.2893 6.47488C38.9791 6.17826 38.5173 6.18259 38.1514 5.98881C37.3068 5.61424 37.2172 4.20582 38.0193 3.73707Z" fill="#FCFDFC"/>
<path d="M42.2487 3.78357C42.7766 3.67531 43.4357 3.69155 43.825 4.13107C44.146 4.46234 44.1865 4.95599 44.1822 5.39551C43.904 5.38793 43.6266 5.36412 43.3516 5.32947C43.2608 5.12812 43.2065 4.91377 43.1243 4.70916C42.9419 4.6821 42.7244 4.53054 42.5579 4.66911C42.3424 4.76979 42.3149 5.1108 42.5452 5.21039C42.9973 5.45397 43.5115 5.64234 43.8272 6.07645C44.2282 6.58092 44.1097 7.33656 43.7707 7.84103C43.2258 8.62373 41.8991 8.5827 41.3797 7.79784C41.1387 7.43507 41.1556 6.97617 41.1409 6.55938C41.4576 6.59835 41.7743 6.64274 42.0933 6.66006C42.1498 6.90797 42.1254 7.20243 42.3151 7.39512C42.424 7.46019 42.5497 7.48725 42.6702 7.52298C42.7321 7.48833 42.8536 7.42013 42.9144 7.38538C43.0455 7.14938 43.0732 6.8809 43.0253 6.61676C42.5976 6.34178 42.0729 6.20755 41.7167 5.83081C41.2155 5.19632 41.4341 4.03472 42.2487 3.78357ZM33.6969 4.45584C34.0895 4.14081 34.6301 4.06395 35.1077 4.18953C35.6665 4.39089 36.0409 4.94516 36.1186 5.53083C35.8052 5.61202 35.4904 5.69105 35.1716 5.73869C35.1225 5.58171 35.0746 5.42474 35.0267 5.26885C34.8582 5.22988 34.6907 5.19199 34.5223 5.1541C34.3549 5.2721 34.1406 5.36736 34.0958 5.59254C34.1939 6.19336 34.3197 6.78986 34.4583 7.38094C34.534 7.78149 35.0896 7.91043 35.354 7.62019C35.5332 7.46213 35.4659 7.19377 35.5023 6.98364C35.7913 6.89162 36.0846 6.7996 36.3864 6.75846C36.59 7.0421 36.573 7.43182 36.4908 7.75768C36.2818 8.32819 35.6983 8.63889 35.1492 8.78179C34.4239 8.88463 33.6051 8.38448 33.4919 7.61911C33.364 6.95008 33.2284 6.28213 33.1164 5.61094C33.025 5.13894 33.347 4.72215 33.6969 4.45584ZM48.6263 6.73465C48.863 6.23125 49.314 5.73327 49.9091 5.75925C50.7346 5.76467 51.6688 6.45426 51.5301 7.37445C51.4107 8.00775 51.0491 8.55553 50.8242 9.15202C50.5683 9.69331 50.3817 10.2714 50.0744 10.7867C49.7834 10.7098 49.52 10.5584 49.2469 10.4361C49.3152 10.0225 49.5401 9.66527 49.6936 9.28312C49.9452 8.67797 50.2322 8.08797 50.47 7.4774C50.5681 7.27388 50.4411 7.07793 50.3772 6.88848C50.1234 6.85059 49.7713 6.7629 49.6349 7.05953C49.2029 8.02193 48.7945 8.99516 48.3617 9.95648C48.0086 9.92076 47.6929 9.74538 47.3922 9.56892C47.7965 8.62146 48.2199 7.6819 48.6263 6.73465Z" fill="#FBFDFA"/>
<path d="M25.9556 7.77605C26.2328 7.60706 26.5069 7.42963 26.798 7.28564C27.4496 8.33141 28.0116 9.43346 28.6536 10.4858C29.1356 10.2097 29.6038 9.91087 30.0955 9.65658C30.2597 9.93155 30.4154 10.2109 30.5595 10.4967C29.7851 10.9199 29.0366 11.3898 28.2677 11.8251C27.4945 10.4759 26.7415 9.11627 25.9556 7.77605Z" fill="#FAFDFA"/>
<path d="M52.7866 8.11057C53.4788 7.6429 54.5389 7.91462 54.9269 8.66051C55.0433 8.85754 55.0986 9.08271 55.1734 9.29923C55.1521 9.60343 55.1115 9.92387 54.9238 10.175C54.5196 10.7423 54.1441 11.3312 53.7209 11.8832C53.4106 12.2774 52.8624 12.3606 52.4006 12.2536C51.5389 12.0879 50.9022 11.0789 51.2519 10.2312C51.4737 9.82416 51.7701 9.46367 52.0186 9.07286C52.2619 8.74279 52.4549 8.36064 52.7866 8.11057Z" fill="#FBFDFA"/>
<path d="M53.02 9.20385C53.1352 9.01224 53.3357 8.91275 53.532 8.82495C53.6942 8.89759 53.8562 8.97218 54.0162 9.0524C54.1026 9.29706 54.2124 9.58708 54.0417 9.82427C53.7889 10.2183 53.5212 10.6026 53.2483 10.9815C52.9956 11.2944 52.5358 11.3106 52.233 11.0649C52.1904 10.9436 52.1476 10.8246 52.105 10.7044C52.3066 10.1458 52.7001 9.69328 53.02 9.20385Z" fill="#010101"/>
<path d="M23.3681 9.7582C23.8971 9.19851 24.9049 9.07726 25.4574 9.66726C26.19 10.4738 26.945 11.2619 27.6586 12.089C27.4261 12.3066 27.2011 12.5328 26.9686 12.7493C26.2061 12.0132 25.5513 11.1711 24.793 10.4317C24.6341 10.2594 24.3878 10.3321 24.1841 10.3256C24.0529 10.5302 23.9079 10.8193 24.0956 11.039C24.7706 11.8152 25.4788 12.5632 26.1837 13.3124C26.1805 13.3784 26.1784 13.4455 26.1762 13.5128C25.9363 13.7076 25.7199 13.9296 25.4926 14.1396C24.857 13.425 24.1894 12.7397 23.5614 12.0187C23.3854 11.8368 23.1935 11.5825 22.9076 11.6647C22.6144 11.7481 22.4341 12.1519 22.6816 12.3868C23.3822 13.1836 24.1095 13.9565 24.8337 14.7327C24.6193 14.9969 24.3612 15.2177 24.1042 15.4387C23.3779 14.6733 22.6762 13.883 21.9542 13.1143C21.5341 12.7072 21.4605 12.0404 21.6898 11.5132C21.8753 10.961 22.4352 10.644 22.9898 10.6179C23.0695 10.3136 23.1452 9.99214 23.3681 9.7582Z" fill="#FBFDFB"/>
<path d="M31.8625 11.327C35.6358 9.56887 39.9676 9.10011 44.0256 9.97916C47.9448 10.8107 51.5804 12.9174 54.3104 15.8847C55.8024 17.516 57.0311 19.3921 57.9299 21.423C58.5378 22.8715 59.0326 24.3797 59.28 25.9384C57.2399 25.5324 55.2252 24.9814 53.2662 24.2723C52.3362 23.9313 51.4149 23.5546 50.5456 23.0739C50.408 23.0014 50.2854 22.9061 50.1905 22.7838C49.797 22.3096 49.4034 21.8376 49.0089 21.3656C48.9096 21.1805 48.6963 21.2506 48.5312 21.242C48.4958 21.0499 48.4663 20.8567 48.4427 20.6628C48.0555 20.2623 48.064 19.6928 48.0458 19.17C47.8859 17.584 47.9628 15.9536 47.5019 14.411C46.8973 13.0448 45.658 11.9395 44.1831 11.6797C43.1411 11.5141 42.063 11.5963 41.0499 11.8908C39.1665 12.4266 37.4451 13.413 35.8125 14.4857C34.3377 15.4698 32.9362 16.5642 31.5798 17.7086C29.9024 17.8028 28.3516 18.5248 26.8778 19.2881C25.9116 19.7655 24.9475 20.2938 23.8863 20.5189C23.3584 20.5871 22.8273 20.6283 22.308 20.7559C24.2928 16.6175 27.7301 13.2224 31.8625 11.327Z" fill="white"/>
<path d="M56.197 10.3927C56.3772 10.2087 56.534 9.94344 56.8253 9.96185C57.2956 10.5432 58.0505 10.9253 58.25 11.6972C58.3183 12.1184 58.2276 12.5892 57.93 12.9043C57.4949 13.4012 57.049 13.8894 56.5874 14.3614C56.2184 14.7555 55.6147 14.7878 55.1326 14.631C54.5259 14.2986 54.0608 13.7626 53.5596 13.2918C54.4139 12.3023 55.3332 11.3734 56.197 10.3927Z" fill="#FBFDFB"/>
<path d="M56.7516 11.3485C57.0247 11.5152 57.2484 11.7642 57.2646 12.1052C56.7804 12.6368 56.2973 13.1705 55.8036 13.6934C55.651 13.6901 55.4975 13.6879 55.3461 13.6847C55.217 13.557 55.0868 13.4292 54.9578 13.3035C55.5654 12.6611 56.1634 12.0093 56.7516 11.3485Z" fill="#010001"/>
<path d="M38.4052 14.9383C39.8909 14.0712 41.4713 13.2517 43.197 13.0513C44.2912 12.9019 45.5239 13.2299 46.2075 14.161C46.7651 14.7803 46.8272 15.6561 46.9029 16.4506C47.001 17.2484 46.9573 18.0571 47.0788 18.8539C46.7727 18.9134 46.4698 19.0022 46.1584 19.0271C45.9984 18.9502 45.8395 18.8756 45.6987 18.7684C45.6443 18.5519 45.6112 18.331 45.5782 18.1102C44.3208 18.3472 42.9951 18.6114 41.9661 19.434C41.4487 19.8346 41.1426 20.4539 41.036 21.0969C41.0349 21.2906 41.0307 21.4855 41.0445 21.6814C41.2185 21.8285 41.468 21.7897 41.6779 21.8425C41.3846 22.3895 41.1223 22.9621 41.0423 23.5857V24.0187C41.5339 23.9408 41.952 23.655 42.4117 23.4828C42.3916 23.5943 42.3519 23.8174 42.3328 23.9289C42.3232 24.0804 42.3147 24.232 42.3073 24.3835C42.4032 24.6234 42.5192 24.8545 42.6539 25.0742C43.3162 24.9279 43.8888 24.5394 44.5213 24.3097L44.4487 24.6821C44.4743 24.7557 44.5245 24.9019 44.5488 24.9744C45.2301 24.8055 45.8743 24.5089 46.4483 24.0997C47.196 23.6125 47.9221 22.9727 48.8319 22.8525C49.3397 23.1772 49.5762 23.8484 50.1129 24.1615C50.9852 24.6961 51.9323 25.0901 52.8814 25.4606C54.8308 26.1957 56.8369 26.7757 58.8717 27.2098C59.9296 27.4447 61.0077 27.6049 62.0336 27.9665C62.6074 28.1776 63.1855 28.5338 63.4393 29.1238C63.917 30.2832 63.9107 31.6548 63.3477 32.7818C62.8434 33.7258 61.9431 34.4966 60.8894 34.702C56.6704 35.6926 52.3832 36.3586 48.0942 36.9375C46.8197 37.0805 45.5485 37.2363 44.2708 37.3458C41.3253 37.6133 38.3678 37.7636 35.4084 37.727C34.439 37.741 33.461 37.7183 32.514 37.49C32.143 37.3472 31.7621 37.1868 31.4944 36.8774C31.1276 36.5157 31.0252 35.9897 30.9313 35.5014C30.7745 34.605 30.5645 33.7129 30.5346 32.7992C30.5015 32.0045 30.7672 31.2456 30.9153 30.4748C31.3749 28.1496 31.7353 25.8014 32.3209 23.502C32.3986 23.2205 32.3549 22.9228 32.4318 22.6416C32.7401 21.3338 33.1037 20.0411 33.4364 18.7399C33.4759 18.6284 33.4908 18.494 33.5836 18.4151C35.1185 17.1576 36.7053 15.957 38.4052 14.9383Z" fill="white"/>
<path d="M56.0894 15.8531C57.3339 14.9394 58.5742 14.0202 59.8208 13.1097C60.2655 13.7605 60.7358 14.3927 61.188 15.0379C60.931 15.2219 60.6888 15.4298 60.4105 15.5792C60.1055 15.2284 59.8507 14.8355 59.584 14.4543C59.3857 14.5951 59.1852 14.7325 58.9847 14.8689C58.9963 15.185 59.2535 15.4005 59.4005 15.6604C59.1648 15.8389 58.9259 16.0155 58.6806 16.1811C58.5176 15.9505 58.3607 15.7156 58.1773 15.5023C57.965 15.6279 57.7666 15.7741 57.5662 15.9158L57.4255 16.0934C57.6964 16.4647 57.9673 16.8359 58.2223 17.2204C57.9695 17.4152 57.7103 17.6003 57.4426 17.7734C57.0001 17.1273 56.4999 16.521 56.0894 15.8531Z" fill="#FBFDFB"/>
<path d="M19.7198 13.6252C19.8201 13.4876 19.9022 13.3297 20.042 13.229C20.3202 13.3546 20.5421 13.5776 20.7885 13.7573C20.5944 14.0312 20.395 14.2997 20.2158 14.5855C21.2001 15.3009 22.1717 16.0339 23.1582 16.7451C23.0121 17.0267 22.8191 17.2777 22.6303 17.5299C21.6268 16.809 20.6435 16.0598 19.6389 15.341C19.4682 15.5976 19.3061 15.8617 19.1099 16.0988C18.7974 16.0825 18.5799 15.7708 18.3186 15.6203C18.7441 14.9265 19.2655 14.2997 19.7198 13.6252Z" fill="#FCFDFA"/>
<path d="M17.2202 17.6848C17.3876 17.3545 17.5561 17.0244 17.7598 16.7159C19.077 17.4434 20.4282 18.1167 21.7239 18.8822C21.7399 19.2481 21.4348 19.575 21.2653 19.8901C20.7203 19.626 20.2212 19.2621 19.6517 19.0566C19.5675 19.2448 19.4811 19.4343 19.3968 19.6249C19.9108 19.9367 20.4803 20.1532 20.9676 20.5126C20.8109 20.8351 20.6392 21.1504 20.4728 21.4673C19.1216 20.7777 17.797 20.0329 16.4597 19.3195C16.4096 19.1138 16.5845 18.9244 16.6559 18.7393C16.7508 18.6039 16.7892 18.3897 16.9567 18.3302C17.4984 18.5759 17.9996 18.9072 18.5413 19.1562C18.6416 18.9667 18.744 18.7783 18.8527 18.5932C18.3111 18.2857 17.7566 18.001 17.2202 17.6848Z" fill="#FCFEFB"/>
<path d="M57.9184 18.2002C58.0389 17.8667 58.4462 17.8461 58.7054 18.0205C58.8186 18.2565 58.828 18.5065 58.6989 18.7382C58.5688 18.7902 58.4398 18.8421 58.3106 18.8963C58.0729 18.7609 57.7221 18.5174 57.9184 18.2002Z" fill="#F6FCF8"/>
<path d="M42.187 20.3773C43.1661 19.522 44.3988 19.089 45.6113 18.7035L45.6987 18.7686C45.8394 18.8757 45.9985 18.9504 46.1585 19.0273C44.8114 19.5675 43.5135 20.2257 42.1847 20.8081C42.1827 20.6631 42.1839 20.5211 42.187 20.3773Z" fill="#F8FBF9"/>
<path d="M59.0487 19.6789C59.2268 19.2524 59.631 18.9926 60.0329 18.814C60.1705 19.1355 60.3154 19.4538 60.451 19.7775C60.1748 19.9279 59.9166 20.1497 59.9764 20.5006C60.1364 20.5417 60.3038 20.6846 60.4734 20.597C61.4833 20.1845 62.4486 19.6681 63.4467 19.2286C63.5908 19.5685 63.7538 19.8986 63.8883 20.243C63.1619 20.5991 62.423 20.9293 61.6966 21.2855C61.1955 21.4901 60.6749 21.7943 60.1162 21.6871C59.2588 21.542 58.6734 20.4865 59.0487 19.6789Z" fill="#FCFDFB"/>
<path d="M24.7503 21.9339C27.3014 21.4121 29.3606 19.4581 31.981 19.1842C31.678 20.4411 31.3113 21.6817 31.0137 22.9407C30.9241 23.3348 30.9391 23.7472 30.8186 24.1348C30.1371 26.8206 29.7948 29.5801 29.1602 32.2768C28.9885 33.0864 29.0845 33.9234 29.2359 34.7286C29.3116 35.2667 29.4236 35.8036 29.6305 36.3081C28.7571 36.3462 27.8996 36.6482 27.1563 37.1083C26.3085 37.6149 25.6718 38.5046 24.6491 38.6713C23.3682 38.7655 22.2677 37.9297 21.0146 37.8335C20.5602 37.8312 20.1369 38.0618 19.6793 38.0434C19.7625 37.9806 19.8457 37.92 19.93 37.8594C20.5709 37.5186 21.2086 37.1243 21.9392 37.0182C22.8307 36.9154 23.7277 36.8515 24.6127 36.7021C25.0969 36.6133 25.5428 36.3817 25.9118 36.0537C26.3981 35.638 27.1969 35.5481 27.4187 34.8639C27.4655 34.3768 27.3654 33.5908 26.7649 33.5261C26.253 33.6006 25.8318 33.9481 25.4372 34.2633C24.7803 34.7884 24.1873 35.4 23.4781 35.8558C23.1592 36.079 22.7561 36.0138 22.3915 36.0192C21.8518 36.0106 21.3389 35.8039 20.8034 35.7627C19.994 35.8495 19.2208 36.1299 18.454 36.3938C17.8664 36.5778 17.266 36.7794 16.6433 36.7479C15.7976 36.723 14.9913 36.4101 14.2437 36.028C14.7578 36.0107 15.2771 36.0573 15.788 35.9717C17.5167 35.7195 19.0812 34.8686 20.7651 34.4474C21.3026 34.2872 21.8817 34.4518 22.4107 34.2427C23.2052 33.9634 23.9539 33.2889 24.0626 32.4055C24.117 32.0634 23.9837 31.7451 23.8269 31.4539C23.3492 31.0134 22.6848 31.2799 22.1941 31.5505C20.7778 32.3646 19.6144 33.5554 18.2087 34.3855C17.8281 34.6053 17.393 34.7352 16.9525 34.717C16.0109 34.691 15.1086 34.3866 14.1828 34.2407C13.3286 34.0794 12.4573 34.1108 11.5936 34.1454C13.2199 33.3465 15.0745 33.4298 16.816 33.106C17.4538 32.9817 18.1491 32.8961 18.6706 32.4707C18.8775 32.3191 18.885 32.0398 18.9202 31.8081C18.7015 31.1857 18.195 30.5924 17.4997 30.5784C16.4215 30.6121 15.5257 31.3048 14.6587 31.8774C14.0593 32.2704 13.4535 32.8377 12.6846 32.7458C11.8964 32.6375 11.1266 32.3735 10.3234 32.3841L10.2541 32.3375C9.48092 32.3235 8.7089 32.4069 7.94958 32.5508C8.58946 32.1448 9.23574 31.7218 9.96936 31.5137C10.8364 31.2572 11.7546 31.36 12.6355 31.1976C14.1041 30.7756 15.051 29.4451 16.3639 28.736C16.7564 28.5423 17.2021 28.381 17.6425 28.4795C18.7506 28.6613 19.4086 29.7588 20.4697 30.0546C21.4167 30.2906 22.4075 29.9258 23.1732 29.3618C23.5891 29.0684 23.9294 28.6473 24.0424 28.1374C23.8515 27.5983 23.1881 27.4932 22.6965 27.5397C21.8722 27.6144 21.3879 28.3809 20.6926 28.7348C19.656 28.6192 18.8989 27.8179 17.9477 27.4782C17.3355 27.3212 16.6252 27.397 16.1292 27.8233C15.3391 28.4685 14.5103 29.1159 13.5196 29.4071C12.3689 29.786 11.1266 29.5979 10.0025 29.2146C11.1778 29.0934 12.3701 28.8388 13.3885 28.2034C14.6374 27.4479 15.5662 26.1053 17.0636 25.8175C17.8965 25.5978 18.7197 25.9767 19.4353 26.3772C19.8874 26.6066 20.3792 26.8785 20.9016 26.7776C21.6899 26.5957 22.2614 25.9775 22.9258 25.5575C23.2404 25.3507 23.6658 25.3323 23.9048 25.0108C24.1053 24.8417 24.0381 24.5637 24.0552 24.333C23.8504 24.1023 23.5721 23.9204 23.2531 23.9834C22.2165 24.0744 21.6033 25.0997 20.6381 25.3789C20.2713 25.459 19.9225 25.2879 19.5802 25.1797C19.0118 24.9794 18.4167 24.8311 17.8099 24.8592C17.2542 24.8311 16.7263 25.026 16.1866 25.1224C16.4405 24.8941 16.691 24.6494 17.01 24.5161C17.7672 24.1675 18.6246 24.3169 19.4192 24.1383C20.1433 23.9575 20.6977 23.4248 21.3175 23.0385C21.9648 22.5913 22.6953 22.2645 23.4663 22.114C23.8875 22.0096 24.3269 22.0335 24.7503 21.9339Z" fill="white"/>
<path d="M42.893 21.8949C43.7899 21.2475 44.6526 20.5103 45.6817 20.0848C45.4492 20.3522 45.1868 20.5894 44.9097 20.8046C43.8517 21.6363 42.779 22.4469 41.6804 23.222C41.9001 22.6407 42.4505 22.2911 42.893 21.8949Z" fill="#EEFAF9"/>
<path d="M46.6 21.1231C46.9049 21.0148 47.2345 20.9845 47.5513 21.0603C47.5758 21.646 47.0224 21.9881 46.6544 22.3485C45.5049 23.2796 44.1664 23.931 42.8109 24.4897C42.8909 23.917 43.083 23.3714 43.2843 22.8344C44.3508 22.1937 45.4172 21.5224 46.6 21.1231Z" fill="#FDFDFC"/>
<path d="M62.357 22.6062C62.5904 22.1665 63.1013 21.9946 63.561 21.9426C64.4504 21.9554 64.9538 23.0209 64.749 23.8078C64.6104 24.3458 64.0953 24.6186 63.6262 24.8081C63.545 24.5147 63.4715 24.2192 63.397 23.9247C63.558 23.7871 63.8609 23.7277 63.8598 23.4689C63.8652 23.3131 63.8332 23.1604 63.8173 23.0066C63.6669 22.96 63.5155 22.918 63.364 22.8842L63.2199 23.1377C63.1975 23.7763 63.157 24.5094 62.6527 24.9662C62.2836 25.3473 61.7088 25.3376 61.2257 25.265C60.3853 25.0377 59.9982 23.9757 60.3022 23.1963C60.5186 22.721 61.0156 22.4969 61.4731 22.3272C61.5681 22.6422 61.6469 22.9613 61.7216 23.2818C61.4816 23.4333 61.0615 23.5494 61.1285 23.9196C61.0891 24.1145 61.2799 24.2054 61.3897 24.3267C61.6319 24.3007 61.9465 24.3386 62.0926 24.0897C62.2182 23.6033 62.1414 23.0695 62.357 22.6062Z" fill="#FBFEFB"/>
<path d="M35.8032 27.377C36.0891 26.4224 37.0137 25.8637 37.9469 25.7466C38.6912 25.7012 39.4998 25.8192 40.0883 26.3215C40.4925 26.6365 40.6471 27.1518 40.7869 27.6273C41.0152 27.6273 41.2444 27.6327 41.4736 27.6489C41.512 27.0373 42.0281 26.575 42.5636 26.3756C42.8952 26.2381 43.2108 26.4297 43.5009 26.5737C43.7475 26.4525 43.9659 26.2219 44.2634 26.2643C44.5184 26.235 44.7743 26.4839 45.0164 26.3379C45.3757 26.1355 45.8407 26.0727 46.2003 26.3098C46.5767 26.4882 46.7047 26.9225 46.8028 27.2982C47.5578 27.0308 48.4631 26.9745 49.1297 27.4984C49.3248 27.4108 49.518 27.3177 49.7109 27.2235C49.8507 26.5685 50.5598 26.1387 51.1932 26.3076C51.8937 26.4603 52.347 27.3577 51.8917 27.9802C52.0006 28.3591 52.0305 28.764 51.8874 29.1396C52.1691 29.4233 52.4752 29.7664 52.409 30.2038C52.4613 30.7959 52.0293 31.2669 51.5837 31.5786C51.8695 32.0203 51.6935 32.5497 51.8588 33.0228C51.9666 33.4775 51.8833 34.0025 51.5229 34.3242C51.028 34.8612 50.2432 34.782 49.5894 34.9034C49.47 34.8255 49.3507 34.7475 49.2312 34.6728C48.5657 34.9909 47.7435 35.0495 47.1313 34.5763C46.8909 34.8068 46.6 34.9761 46.2824 35.0701C45.9572 35.5235 45.5286 35.9773 44.9611 36.078C44.4128 36.0977 44.031 35.5964 43.9329 35.092C43.3826 35.2674 42.8154 35.1884 42.2799 35.001C41.8116 35.3821 41.1613 35.4274 40.6057 35.2379C40.3679 35.7089 40.033 36.1408 39.555 36.3779C38.5355 36.8953 37.1342 36.7222 36.4025 35.7836C35.7916 35.0182 35.8917 33.8209 36.6116 33.1616C36.5049 32.9245 36.4227 32.6776 36.3781 32.4222C36.234 32.3789 36.0913 32.3344 35.9493 32.2923C35.8128 32.3648 35.6762 32.4373 35.5408 32.5111C34.8187 32.5133 34.0883 32.4385 33.3813 32.6292C33.1818 32.484 32.9439 32.3737 32.8128 32.155C32.6891 31.9309 32.7147 31.6679 32.7084 31.422C31.7849 31.147 31.4851 29.8371 32.1261 29.1421C32.523 28.7079 33.1381 28.6364 33.6895 28.6623C34.0383 28.4902 34.451 28.2596 34.8243 28.5227C35.2926 28.7306 35.2265 29.3205 35.4664 29.6975C35.8227 29.9388 36.2215 29.599 36.6055 29.5979C35.8319 29.1871 35.6166 28.1836 35.8032 27.377Z" fill="#010102"/>
<path d="M37.55 26.564C38.175 26.3757 38.8928 26.3897 39.4631 26.734C40.0657 27.0739 40.2607 27.9757 39.8481 28.5386C39.6764 28.7703 39.3906 28.8602 39.1399 28.9694C39.446 29.7889 39.9184 30.7177 40.8079 30.9821C41.3219 31.1239 41.7252 30.6086 42.2241 30.6573C42.5023 30.6647 42.4811 31.0177 42.5046 31.219C42.0429 31.94 41.0404 32.0655 40.3195 31.705C39.5964 31.3294 39.1305 30.5922 38.8381 29.8463C38.7218 29.5486 38.628 29.2442 38.5289 28.9412C38.483 28.948 38.3891 28.9597 38.3434 28.9661C38.3541 29.1459 38.3659 29.3266 38.3786 29.5074C38.4917 29.5593 38.6046 29.6114 38.7186 29.6642C38.6897 29.7973 38.6589 29.9318 38.626 30.0647C38.4192 30.4319 38.1054 30.7273 37.7407 30.9286C37.6363 30.8278 37.505 30.7509 37.4367 30.6199C37.5231 30.3733 37.715 30.1654 37.7234 29.8924C37.7385 29.4226 37.6733 28.9538 37.6818 28.484C37.6935 28.2047 37.4974 27.9882 37.3523 27.7749C37.5783 27.4653 37.9633 27.5194 38.2971 27.527C38.3302 27.5854 38.3643 27.6439 38.3995 27.7034C38.3535 27.9513 38.3333 28.2023 38.3248 28.4545C38.6288 28.4534 38.9999 28.4935 39.1981 28.2023C39.5095 27.8494 39.2205 27.3018 38.8185 27.1795C38.1998 26.966 37.3072 27.1221 37.0599 27.8171C37.1633 28.2101 37.5451 28.4926 37.5196 28.9202C37.3554 28.9829 37.1816 29.1292 37.0014 29.0296C36.497 28.7654 36.3252 28.0984 36.4884 27.5757C36.6159 27.0662 37.0691 26.7047 37.55 26.564Z" fill="#F9FCFA"/>
<path d="M45.4077 26.9094C45.5719 26.8486 45.749 26.8888 45.9196 26.8932C46.0637 27.1551 46.1585 27.5568 45.8887 27.769C45.6754 27.8524 45.3609 27.8393 45.2638 27.5914C45.1081 27.3662 45.2488 27.0869 45.4077 26.9094Z" fill="#F4FAF9"/>
<path d="M42.1774 27.5796C42.3149 27.2819 42.6221 27.1238 42.9046 26.9972C43.2886 27.8859 43.0678 28.8917 43.2416 29.8237C43.3366 29.9374 43.4464 30.0392 43.5519 30.1453C43.555 30.2037 43.5605 30.3217 43.5636 30.3802C43.1915 30.5588 42.7702 30.5123 42.3723 30.4841C42.3691 30.4182 42.3638 30.2849 42.3607 30.2189C42.4364 30.1009 42.5132 29.9829 42.5718 29.8554C42.5567 29.2145 42.4704 28.5766 42.4821 27.9349C42.38 27.8188 42.1145 27.7873 42.1774 27.5796ZM43.6417 27.389C43.8624 27.1963 44.0876 26.9907 44.3817 26.929C44.6101 27.4453 44.5684 28.0256 44.6229 28.5777C44.6634 29.0649 44.5226 29.646 44.9119 30.0229H45.3002C45.3513 29.9612 45.4527 29.8389 45.5027 29.7783C45.5058 29.4512 45.5058 29.1244 45.491 28.7983C45.3961 28.7745 45.2062 28.7282 45.1113 28.7044C45.2009 28.3136 45.5443 28.0841 45.8856 27.9409C46.1182 28.4909 46.0081 29.1047 46.1202 29.6806C46.2342 29.8008 46.3494 29.921 46.4656 30.0411C46.4613 30.0942 46.454 30.1981 46.4507 30.2501C46.1062 30.3152 45.7563 30.3442 45.4066 30.3486C45.2977 30.2652 45.1891 30.1851 45.0812 30.1028C44.8201 30.5922 44.1844 30.4428 43.7482 30.3464C43.8409 30.0855 44.0553 29.8549 44.0202 29.5602C43.9989 29.0916 43.9669 28.623 43.9445 28.1542C43.9285 28.0416 43.9146 27.9301 43.9028 27.8184C43.6769 27.7787 43.6491 27.5817 43.6417 27.389Z" fill="#F8FCF9"/>
<path d="M50.4756 27.2168C50.6954 26.7925 51.4834 26.9917 51.3682 27.5059C51.2232 27.7592 50.9288 27.6358 50.6994 27.6499C50.9468 27.9898 51.4224 28.3016 51.2616 28.7898C51.0707 29.2443 50.5119 29.2813 50.1044 29.4177C50.083 29.4642 50.0403 29.5573 50.0189 29.6049C50.4595 29.8344 50.9468 29.475 51.3894 29.6936C51.605 29.7694 51.685 30.0043 51.7743 30.1959C51.6229 30.9451 50.7944 31.2363 50.1245 31.1843C49.8398 31.1335 49.4633 31.0923 49.3151 30.8054C49.1818 30.5435 49.426 30.2219 49.7022 30.2728C49.9432 30.4439 50.1512 30.6627 50.4178 30.7969C50.662 30.7028 51.1035 30.6616 51.0235 30.2912C50.8914 30.105 50.6449 30.1288 50.4487 30.1451C50.1532 30.1689 49.8568 30.1689 49.5604 30.1624C49.4836 30.0844 49.4077 30.0065 49.332 29.9296C49.331 29.83 49.331 29.7315 49.331 29.6342C49.4482 29.5242 49.5669 29.416 49.6872 29.3094C49.5516 29.1525 49.3448 29.0312 49.3086 28.8112C49.2308 28.5666 49.3684 28.3394 49.4588 28.1238C49.7842 27.9441 50.1404 27.8434 50.5061 27.7925C50.4542 27.6075 50.3038 27.3813 50.4756 27.2168Z" fill="#F6FAF7"/>
<path d="M47.6248 28.112C47.8829 27.9474 48.224 27.7266 48.5216 27.9301C48.8438 28.152 48.799 28.584 48.8309 28.9272C48.817 29.2195 49.1272 29.3625 49.1476 29.646C48.8799 29.935 48.6133 30.4235 48.1483 30.249C48.2326 29.6817 48.384 29.0636 48.1195 28.5223C47.9564 28.5647 47.7964 28.6089 47.6342 28.6511C47.5916 28.8793 47.5116 29.108 47.5434 29.3437C47.5713 29.6588 47.8603 29.8385 48.0021 30.0994C47.6311 30.2834 47.2173 30.2845 46.815 30.2618L46.6477 30.0528C46.7501 29.9446 46.8536 29.8385 46.9623 29.7366C46.9912 29.6479 47.0221 29.5613 47.0519 29.4734C47.0051 29.2396 46.9835 29.0025 46.9707 28.7654L46.653 28.7048C46.6552 28.5381 46.6956 28.3788 46.7554 28.2263C46.9378 28.1018 47.119 27.9752 47.3056 27.8548C47.4208 27.9871 47.4996 28.1417 47.5765 28.3008C47.5885 28.2539 47.6132 28.1597 47.6248 28.112Z" fill="#F8FBF9"/>
<path d="M49.8868 28.5581C49.9678 28.2507 50.3198 28.2715 50.5649 28.3113C50.6445 28.4336 50.7083 28.5657 50.7547 28.7045C50.583 28.8095 50.3996 28.8896 50.215 28.9665C50.0862 28.8591 49.7833 28.7941 49.8868 28.5581Z" fill="#030207"/>
<path d="M40.5691 28.4195C41.0374 28.1859 41.6773 28.3451 41.9223 28.8298C42.1431 29.3183 42.1549 29.9698 41.755 30.3671C41.4617 30.6962 40.9605 30.6594 40.5745 30.5641C39.7619 30.2026 39.7511 28.7834 40.5691 28.4195Z" fill="#F8FBF6"/>
<path d="M38.3434 28.9663C38.3893 28.9596 38.4832 28.9479 38.5289 28.9414C38.6282 29.2445 38.7221 29.5487 38.8381 29.8464C38.7667 29.919 38.6952 29.9915 38.626 30.0651C38.6592 29.9321 38.69 29.7977 38.7187 29.6646C38.6047 29.6117 38.4915 29.5596 38.3786 29.5078C38.3659 29.3268 38.354 29.146 38.3434 28.9663Z" fill="#152028"/>
<path d="M40.7003 28.9825C40.9286 28.7229 41.4043 28.8905 41.4446 29.2304C41.4787 29.5108 41.532 29.8973 41.2313 30.0553C41.0212 30.0847 40.7387 30.1105 40.6405 29.8691C40.5116 29.6017 40.4861 29.2086 40.7003 28.9825Z" fill="#020103"/>
<path d="M34.019 29.3885C34.1724 29.2144 34.3625 29.1027 34.5982 29.1503C34.597 29.3473 34.6271 29.5812 34.4382 29.7046C34.2708 29.7457 34.0989 29.749 33.9294 29.7643C33.9538 30.1777 33.9486 30.5923 33.9838 31.005C34.0564 31.097 34.1299 31.1901 34.2036 31.2842C34.0019 31.5614 33.7951 31.9262 33.3995 31.8948C33.4698 31.4551 33.7078 30.9606 33.4145 30.5525C33.2417 30.8263 32.7874 30.7863 32.6169 30.5321C32.3727 30.2496 32.4238 29.7516 32.7374 29.5405C33.1082 29.2671 33.5956 29.435 34.019 29.3885Z" fill="#F2FAF9"/>
<path d="M32.8555 30.2414C32.9004 30.0663 32.8715 29.8312 33.0753 29.7566C33.2128 29.7272 33.3527 29.7133 33.4945 29.7133C33.5041 29.9244 33.518 30.1365 33.537 30.3498C33.3227 30.2437 33.0848 30.2578 32.8555 30.2414Z" fill="#030408"/>
<path d="M34.4381 29.7045C34.5159 29.7338 34.6716 29.7913 34.7506 29.8194C34.7901 30.0446 34.7923 30.2752 34.8094 30.5047C35.0493 30.3811 35.2958 30.3368 35.5323 30.495C35.5568 30.7039 35.5783 30.9126 35.5942 31.1229C35.6591 31.2157 35.7253 31.31 35.7916 31.4052C35.6725 31.5475 35.5487 31.6858 35.4206 31.8198L35.1145 31.7592C35.2265 31.4442 35.3128 31.0772 35.1049 30.7795C35.0056 30.8152 34.9118 30.8637 34.8181 30.9115C34.8204 31.062 34.8266 31.2147 34.8373 31.3662C34.913 31.4918 34.992 31.6163 35.075 31.7384C34.8212 31.7741 34.5654 31.7969 34.3093 31.8024C34.3039 31.7611 34.2933 31.678 34.288 31.6356C34.3541 31.5329 34.4202 31.432 34.4832 31.3294C34.4054 30.9971 34.4105 30.6539 34.4097 30.315C34.0297 30.2253 34.3667 29.9135 34.4381 29.7045Z" fill="#F2F9F8"/>
<path d="M36.2105 30.3628C36.5369 30.297 36.9849 30.326 37.0614 30.7363C37.1894 31.204 36.5751 31.1455 36.2872 31.1585C36.3022 31.2059 36.3331 31.3012 36.349 31.349C36.5955 31.3436 36.8224 31.2332 37.0657 31.205C37.1479 31.7961 36.138 31.886 35.98 31.3609C35.7871 31.0079 35.9408 30.6172 36.2105 30.3628Z" fill="#F1FBF9"/>
<path d="M36.1465 30.7493C36.347 30.6875 36.5495 30.6313 36.7554 30.5846C36.7929 30.9668 36.3256 31.0058 36.1465 30.7493Z" fill="#61A6C3"/>
<path d="M38.4042 31.3609C38.6271 31.3945 38.8286 31.1043 39.0387 31.2687C39.3246 31.5122 39.4984 31.9009 39.4845 32.2811C39.3907 32.36 39.2829 32.4164 39.1774 32.4759C38.9085 32.2484 38.6387 32.0104 38.3041 31.8935C38.1737 31.9408 38.0436 31.9887 37.9138 32.0375C37.8967 32.1999 37.7186 32.4175 37.9351 32.5147C38.4895 32.8408 39.1668 32.9133 39.6746 33.3366C39.9752 33.7447 40.0798 34.2535 40.0318 34.7556C39.7119 36.0038 37.9897 36.3427 37.1023 35.5157C36.5477 35.0513 36.5424 33.9828 37.21 33.6199C37.5598 33.4004 38.0706 33.4034 38.3363 33.7552C38.2872 33.8734 38.2393 33.9923 38.1914 34.1114C37.9536 34.1939 37.6624 34.2066 37.4982 34.4232C37.4159 34.7284 37.5376 35.0924 37.8405 35.218C38.2415 35.3975 38.7853 35.3563 39.1021 35.0285C39.4603 34.6139 39.3528 33.8875 38.8675 33.6223C38.3908 33.3657 37.8352 33.2769 37.3852 32.9652C37.0321 32.7172 36.9714 32.1846 37.2264 31.8438C37.4733 31.4453 37.9628 31.3003 38.4042 31.3609Z" fill="#F8FCF9"/>
<path d="M49.5583 31.9043C49.8493 31.6404 50.2867 31.9043 50.5842 31.6532C50.6386 31.6532 50.7484 31.6521 50.8028 31.6521C50.9478 31.884 51.0599 32.136 51.1506 32.3969C50.8413 32.6795 50.5266 32.3904 50.2537 32.2161C50.2047 32.2228 50.1045 32.2334 50.0555 32.2399C50.0543 32.3244 50.0532 32.4099 50.0543 32.4965C50.4052 32.6589 50.834 32.7 51.1122 32.9947C51.3244 33.2242 51.173 33.536 51.1111 33.798C50.8307 34.0426 50.4723 34.1097 50.113 34.0447C49.984 34.1087 49.8475 34.2341 49.6949 34.1682C49.4411 33.9517 49.2768 33.6323 49.2876 33.2924C49.6747 33.0856 49.9735 33.4689 50.3178 33.5878C50.5716 33.6918 50.5152 33.3725 50.545 33.2338C50.1833 33.1158 49.8166 33.0063 49.4774 32.83L49.324 32.5791C49.3195 32.334 49.3674 32.0721 49.5583 31.9043Z" fill="#F7FAF9"/>
<path d="M45.332 32.2692C45.6275 32.0917 45.9911 31.899 46.3292 32.0917C46.9807 32.4639 47.0597 33.4676 46.6394 34.0477C46.4316 34.38 45.9397 34.4785 45.6295 34.2394C45.4471 34.1441 45.4321 33.8408 45.5954 33.7208C45.748 33.6981 45.9037 33.6884 46.0603 33.6905C46.3088 33.448 46.3728 33.1103 46.2106 32.7974L45.9718 32.6285C45.7435 32.6307 45.4536 32.6881 45.4012 32.9576C45.3617 33.3192 45.3884 33.6851 45.4023 34.0487C45.3969 34.2578 45.6071 34.3606 45.702 34.5241C45.7512 34.6939 45.59 34.8099 45.5058 34.9322C45.2999 35.1327 45.0804 35.427 44.757 35.3395C44.6269 35.0418 44.8103 34.7322 44.8018 34.428C44.7826 33.9395 44.7196 33.4547 44.7326 32.9665C44.629 32.9154 44.5258 32.8656 44.4243 32.8158C44.4147 32.7552 44.3954 32.6339 44.387 32.5733C44.596 32.344 44.8242 32.0862 45.1527 32.0604C45.1976 32.1122 45.2872 32.2171 45.332 32.2692Z" fill="#F8FCF9"/>
<path d="M47.4586 32.1512C47.8959 31.7028 48.765 31.7884 49.039 32.3829C49.1468 32.6135 49.214 33.013 48.928 33.1353C48.5741 33.3225 48.1699 33.2674 47.7881 33.2706C47.7978 33.3258 47.819 33.4384 47.8298 33.4936C48.2511 33.8097 48.6447 33.3616 49.0851 33.3767C49.0937 33.512 49.1214 33.6496 49.1044 33.787C48.9467 34.073 48.6032 34.1411 48.3238 34.2428C47.7938 34.2503 47.2596 33.9052 47.1763 33.3497C47.0533 32.9348 47.1642 32.4651 47.4586 32.1512Z" fill="#F8FBF9"/>
<path d="M42.4207 32.555C42.6894 32.1404 43.2482 32.1155 43.6737 32.2413C44.2027 32.4394 44.3062 33.0813 44.2901 33.5834C44.1973 33.8768 44.0778 34.2082 43.7835 34.3523C43.4987 34.5212 43.1617 34.4562 42.8492 34.4679C42.1678 34.1269 41.9534 33.1591 42.4207 32.555Z" fill="#F9FDF8"/>
<path d="M40.3952 32.2921C40.5926 32.1145 40.8602 32.0714 41.1043 32C41.3293 32.0799 41.5874 32.1256 41.7602 32.3064C41.8892 32.4828 41.8551 32.7565 41.6523 32.8637C41.3613 32.7446 41.0733 32.5857 40.7491 32.6363C40.5667 32.9644 40.4855 33.4526 40.8248 33.7079C41.1873 33.8886 41.5286 33.5173 41.9029 33.5758C41.9102 33.7685 41.9999 34.0315 41.7908 34.1517C41.5072 34.4267 41.0837 34.4427 40.7212 34.367C39.9186 34.0719 39.7511 32.8313 40.3952 32.2921Z" fill="#F7FCF8"/>
<path d="M47.867 32.4468C48.139 32.384 48.5378 32.3171 48.558 32.7153C48.2712 32.7986 47.9745 32.8396 47.677 32.8549C47.738 32.7174 47.8019 32.5821 47.867 32.4468Z" fill="#03080A"/>
<path d="M42.9601 32.7564C43.1414 32.6719 43.3419 32.7325 43.5308 32.7574C43.6706 33.0304 43.7815 33.3464 43.6588 33.6506C43.5479 34.0262 42.942 34.0349 42.8163 33.6603C42.7724 33.3593 42.7086 32.9836 42.9601 32.7564Z" fill="#040304"/>
<path d="M61.9741 35.9045C62.7281 35.7291 63.2752 35.1304 63.8575 34.6736C64.9132 34.7851 65.9169 35.2917 66.6558 36.0625C67.3021 36.7943 67.7478 37.7535 67.7063 38.7527C67.767 40.08 67.0762 41.3565 66.0704 42.1715C64.3705 43.5885 61.6829 43.6178 60.0054 42.1467C59.0124 41.3054 58.4483 39.9522 58.6105 38.6435C58.6927 37.8478 59.0232 37.0954 59.5 36.4632C60.3286 36.2974 61.1488 36.0873 61.9741 35.9045Z" fill="white"/>
<path d="M13.1484 36.8203C13.4588 37.1353 13.7627 37.4569 14.0784 37.7665C14.3077 37.9657 14.3439 38.2872 14.4494 38.5587C15.9703 42.9236 18.5958 46.8837 22.0097 49.956C25.0512 52.7057 28.706 54.7604 32.6305 55.8776C37.1023 57.1626 41.9034 57.2493 46.4145 56.1102C52.809 54.5394 58.552 50.4691 62.258 44.9586C62.5714 44.9218 62.8862 44.8872 63.2028 44.8731C59.4327 50.7483 53.4373 55.1218 46.7249 56.8011C45.1113 57.2285 43.4562 57.4831 41.7947 57.5945C39.5188 57.7483 37.2259 57.6106 34.9821 57.1984C30.5628 56.3895 26.3545 54.4476 22.8276 51.6296C18.1543 47.9112 14.684 42.6489 13.1484 36.8203Z" fill="#FAFCFA"/>
<path d="M55.5209 37.2144C55.6564 37.1984 55.7971 37.1473 55.9358 37.182C56.7646 37.8661 57.3562 38.8535 57.4886 39.9382C57.8182 42.0579 56.3197 44.1786 54.3352 44.7794C52.9956 45.2211 51.4569 45.0392 50.2869 44.2295C49.3696 43.6243 48.6903 42.6512 48.4717 41.5588C48.2167 40.4634 48.4685 39.2726 49.071 38.3371C49.1445 38.1758 49.3365 38.1963 49.4805 38.1682C51.5015 37.9007 53.5127 37.5652 55.5209 37.2144ZM27.602 40.7003C28.0393 39.32 29.1089 38.1162 30.4846 37.6702C30.6734 38.2645 31.1352 38.7419 31.7249 38.9292C33.0216 39.3764 34.4155 39.1968 35.7604 39.2369C36.4215 40.2272 36.7662 41.4746 36.5177 42.6621C36.1679 44.7688 34.2035 46.4273 32.1058 46.4252C30.5795 46.5009 29.0493 45.7247 28.1918 44.4408C27.4548 43.3633 27.2544 41.9593 27.602 40.7003ZM39.1539 39.1447C41.3946 39.0418 43.6353 38.8784 45.863 38.6034C46.6521 39.4164 47.1586 40.5336 47.1129 41.6876C47.1013 43.0452 46.3653 44.3388 45.2797 45.1118C44.2582 45.8523 42.9262 46.1446 41.6963 45.8696C40.1021 45.5502 38.7444 44.263 38.3679 42.65C38.2687 41.9279 38.2591 41.1788 38.4735 40.4762C38.6336 39.9999 38.8873 39.5656 39.1539 39.1447Z" fill="white"/>
<path d="M25.2581 40.0517C25.4234 39.9675 25.5908 39.8863 25.7592 39.8038C25.3806 40.7351 25.274 41.7494 25.3242 42.7473C24.6712 41.9798 24.0616 41.1752 23.4984 40.3375C24.0988 40.3624 24.697 40.2769 25.2581 40.0517Z" fill="#FAFCFB"/>
<path d="M20.4621 43.6286C21.327 43.0819 22.1396 42.4508 23.0109 41.9127C23.2168 42.2191 23.4194 42.5276 23.606 42.847C22.82 43.3666 22.0511 43.9101 21.2651 44.4275C20.8941 44.657 20.4834 44.8963 20.0312 44.8402C19.2283 44.8131 18.5862 43.9731 18.7099 43.1782C18.7984 42.69 19.1408 42.2613 19.5865 42.0589C19.7593 42.3371 19.9587 42.5969 20.1252 42.8795C19.9695 43.1122 19.6431 43.3255 19.786 43.6483C19.9578 43.8949 20.2596 43.7455 20.4621 43.6286Z" fill="#FBFDFB"/>
<path d="M22.8756 44.55C23.2147 44.2283 23.6008 43.8419 24.1073 43.9005C24.8783 44.0065 25.5076 44.6962 25.6292 45.4658C25.6686 45.9368 25.3839 46.3523 25.0373 46.635C24.2705 47.3257 23.5613 48.0824 22.7679 48.7428C22.5696 48.5371 22.3691 48.3346 22.1717 48.129C22.5364 47.6353 23.0291 47.2532 23.4792 46.8429C23.2574 46.5655 23.0217 46.3016 22.7817 46.0427C22.3018 46.413 21.8945 46.8689 21.436 47.2638C21.228 47.0754 21.0318 46.8751 20.8366 46.6738C20.8323 46.635 20.8238 46.5547 20.8185 46.5147C21.488 45.8425 22.2068 45.222 22.8756 44.55Z" fill="#FCFDFB"/>
<path d="M41.369 47.6035C43.8068 47.9218 46.3644 46.5567 47.4543 44.3127C48.1528 45.2719 49.1606 45.9841 50.2804 46.3415C50.2773 46.3642 50.2688 46.4108 50.2645 46.4335C46.4987 48.7892 41.945 49.8198 37.5543 49.2493C35.8917 49.0371 34.2483 48.6194 32.6989 47.9675C34.499 47.6027 36.0806 46.3523 36.9156 44.6981C37.838 46.3091 39.5444 47.4165 41.369 47.6035Z" fill="white"/>
<path d="M23.8759 44.9591C24.2822 44.932 24.7503 45.3177 24.5872 45.758C24.4443 45.9304 24.2684 46.0711 24.1008 46.2181C23.8523 45.9746 23.6113 45.7236 23.3842 45.4593C23.5473 45.2918 23.7112 45.125 23.8759 44.9591Z" fill="#020304"/>
<path d="M26.6583 45.8966C26.9099 46.0657 27.1489 46.2539 27.392 46.4368C27.0721 47.1957 26.7692 47.9632 26.4226 48.7102C26.4109 48.7804 26.3852 48.92 26.3724 48.9895C27.0529 48.3865 27.7663 47.8246 28.4637 47.242C28.6941 47.4358 28.9319 47.6198 29.1751 47.7975C27.9637 48.8358 26.7158 49.8304 25.4947 50.8589C25.2644 50.6813 25.0319 50.5081 24.7972 50.3371C25.4073 48.852 26.0461 47.3808 26.6583 45.8966Z" fill="#FBFDFB"/>
<path d="M48.9185 49.0697C49.7694 48.5866 50.5959 48.0616 51.4269 47.5454C51.5985 47.8161 51.7627 48.0921 51.91 48.3788C51.6402 48.5455 51.3575 48.6907 51.1004 48.877C51.124 49.0188 51.1997 49.1422 51.2712 49.2656C51.8109 50.1761 52.3674 51.0778 52.889 52.0013C52.9134 52.0186 52.9636 52.0532 52.9883 52.0708C52.717 52.231 52.451 52.4002 52.1907 52.5783C51.4773 51.5609 50.9237 50.4372 50.2466 49.3947C49.9576 49.5655 49.675 49.7476 49.3764 49.9013C49.2235 49.6228 49.0688 49.3467 48.9185 49.0697Z" fill="#FBFDF9"/>
<path d="M29.8161 48.5879C30.6778 48.3302 31.7346 48.8843 31.949 49.7895C32.0355 50.268 31.7497 50.688 31.5522 51.0962C31.148 51.9284 30.7183 52.7458 30.3024 53.572C30.0229 53.4475 29.7531 53.3035 29.4865 53.155C29.7543 52.6029 30.0325 52.0573 30.3034 51.5073C29.9877 51.3449 29.6849 51.1489 29.3458 51.0397C29.0951 51.5744 28.8009 52.0878 28.5587 52.6278C28.2677 52.5455 27.9988 52.4039 27.728 52.2738C27.7482 52.0248 27.8571 51.7996 27.9721 51.5842C28.3412 50.8405 28.7326 50.1086 29.0919 49.3595C29.238 49.0284 29.4578 48.7015 29.8161 48.5879Z" fill="#FBFDFA"/>
<path d="M30.0548 49.638C30.1156 49.614 30.2351 49.5676 30.2948 49.5438C30.5795 49.6044 30.9976 49.7333 30.9923 50.0968C30.923 50.3274 30.795 50.5342 30.684 50.7463C30.3684 50.5894 30.0527 50.4326 29.7444 50.2605C29.8435 50.0508 29.947 49.8432 30.0548 49.638Z" fill="#020304"/>
<path d="M45.6508 50.2474C46.4038 50.0363 47.1503 49.4298 47.9576 49.7343C48.7339 49.9605 49.1755 50.9532 48.8053 51.6883C48.5708 52.1679 48.1026 52.458 47.6206 52.629C47.8211 53.1703 48.0407 53.7049 48.22 54.2551C47.9599 54.3709 47.6953 54.4739 47.4383 54.5939C47.3742 54.5962 47.3103 54.5982 47.2474 54.6015C46.8208 53.4983 46.4143 52.3876 45.9932 51.2823C45.864 50.9424 45.7019 50.6111 45.6508 50.2474Z" fill="#FCFEFC"/>
<path d="M33.3524 49.9887C33.859 49.836 34.422 49.9456 34.8605 50.2377C35.3319 50.6112 35.4235 51.2975 35.2529 51.8507C34.9747 51.7782 34.6985 51.6991 34.4276 51.606C34.3987 51.3741 34.4478 51.0474 34.1962 50.9251C34.0436 50.8125 33.8507 50.8472 33.6768 50.8352C33.6235 50.9662 33.5712 51.0993 33.5199 51.2326C33.9988 51.6645 34.6483 51.96 34.8925 52.6085C35.1634 53.4432 34.5748 54.4207 33.7268 54.5853C33.602 54.5822 33.4794 54.5809 33.3567 54.5809C32.9185 54.4696 32.4278 54.3126 32.1909 53.8859C31.9383 53.4726 32.0128 52.9626 32.08 52.5069C32.3926 52.5751 32.706 52.6465 33.0068 52.7614C33.028 53.0677 32.9928 53.4001 33.2201 53.6426C33.3309 53.6426 33.5516 53.6439 33.6616 53.6439C33.8057 53.4401 33.9838 53.2108 33.9495 52.9456C33.6115 52.4801 33.0036 52.2961 32.7146 51.7849C32.4534 51.149 32.7094 50.2788 33.3524 49.9887Z" fill="#FAFCF9"/>
<path d="M43.9093 50.543C44.2474 50.4705 44.5854 50.396 44.9278 50.347C45.238 51.8691 45.5005 53.401 45.8184 54.922C45.5401 54.9891 45.2607 55.0497 44.978 55.0952C44.9439 55.1168 44.8744 55.1604 44.8404 55.1831C44.7017 54.8019 44.6506 54.3982 44.5695 54.004C44.3498 52.8499 44.1248 51.6981 43.9093 50.543Z" fill="#FBFEFA"/>
<path d="M46.9412 50.8559C47.2175 50.7401 47.5108 50.6565 47.8125 50.7217C47.9307 50.9371 48.0204 51.1915 47.9126 51.4327C47.7325 51.6113 47.4819 51.6819 47.245 51.7458C47.1417 51.4491 47.0309 51.1557 46.9412 50.8559Z" fill="#020204"/>
<path d="M36.5016 51.3668C36.9966 50.5819 38.2506 50.4737 38.881 51.1524C39.0731 51.3408 39.1616 51.6028 39.2702 51.8444C39.2691 52.0902 39.268 52.337 39.2638 52.5849C38.9469 52.5966 38.6303 52.5665 38.3156 52.534C38.3125 52.3684 38.3082 52.2025 38.3091 52.0393C38.1011 51.8098 37.7812 51.6764 37.4868 51.8141C37.2255 52.0025 37.2713 52.3586 37.2117 52.6401C37.1658 53.1002 37.0549 53.5538 37.0592 54.0204C37.0985 54.0799 37.1797 54.199 37.2191 54.2585C37.4622 54.4036 37.7331 54.3711 37.9795 54.251C38.0478 54.0864 38.1159 53.9229 38.1831 53.7595C38.4957 53.7941 38.8071 53.8439 39.1205 53.8788C39.1195 54.354 38.9628 54.8918 38.5224 55.1311C37.8365 55.5078 36.8492 55.4494 36.3542 54.7793C35.9555 54.3345 36.0514 53.6924 36.1517 53.1523C36.2787 52.5598 36.2723 51.9308 36.5016 51.3668Z" fill="#FCFEFD"/>
<path d="M40.0082 50.9241C40.6064 50.8385 41.211 50.7952 41.8157 50.7952C42.124 50.7844 42.4023 50.9338 42.6678 51.0767C43.104 51.6193 43.184 52.4182 42.8545 53.0353C42.7478 53.2505 42.5537 53.4042 42.4417 53.6153C42.6945 54.2174 43.0805 54.7533 43.3749 55.3377C43.0326 55.3431 42.6925 55.3758 42.3522 55.3984C41.9704 54.8172 41.6663 54.185 41.243 53.6337C41.2485 54.2532 41.3539 54.8657 41.3667 55.486C41.0436 55.5141 40.7226 55.5596 40.3984 55.5704C40.3579 55.239 40.3473 54.9047 40.3088 54.5734C40.2447 53.7787 40.1733 52.984 40.1029 52.1895C40.0552 51.7685 40.0359 51.3463 40.0082 50.9241Z" fill="#FDFEFC"/>
<path d="M41.0939 51.7695C41.4246 51.668 41.7636 51.7273 42.0484 51.9211C42.0866 52.0508 42.1272 52.1831 42.1678 52.3141C42.0866 52.4689 42.0237 52.6548 41.8617 52.7438C41.6442 52.8088 41.4201 52.8456 41.1963 52.8824C41.1227 52.5153 41.0971 52.143 41.0939 51.7695Z" fill="#010204"/>
</g>
<defs>
<clipPath id="clip0_1_9">
<rect width="69" height="59" fill="white"/>
</clipPath>
</defs>
</svg>
